<svg width="26" height="21" viewBox="0 0 26 21" fill="none" xmlns="http://www.w3.org/2000/svg">
<path d="M25.4832 10.4629C25.4832 11.0493 25.0474 11.534 24.482 11.6107L24.3248 11.6212L3.96305 11.6203L11.3192 18.9464C11.7725 19.3977 11.7741 20.1311 11.3227 20.5845C10.9123 20.9966 10.2689 21.0354 9.81473 20.6999L9.68457 20.588L0.34076 11.2843C0.281004 11.2248 0.229102 11.1605 0.185052 11.0925C0.17261 11.072 0.159946 11.051 0.147939 11.0297C0.136895 11.0114 0.126915 10.9924 0.1175 10.9731C0.104424 10.9452 0.091647 10.9163 0.0800474 10.8868C0.070622 10.8641 0.0627523 10.8419 0.055574 10.8197C0.0470399 10.792 0.0387482 10.7626 0.031616 10.7327C0.0263137 10.7118 0.0221143 10.6917 0.0184514 10.6715C0.0133004 10.6415 0.00891591 10.6105 0.00578751 10.579C0.0030863 10.5551 0.00146042 10.5313 0.000561719 10.5076C0.000329437 10.4932 3.73721e-05 10.4781 3.73721e-05 10.4629L0.000617689 10.418C0.00150558 10.3953 0.00305824 10.3726 0.0052779 10.3499L3.73721e-05 10.4629C3.73721e-05 10.3898 0.00680799 10.3183 0.0197563 10.249C0.0227592 10.2324 0.0263373 10.2154 0.0302993 10.1985C0.0385275 10.1636 0.0480364 10.13 0.0589852 10.0971C0.0643592 10.0807 0.0706195 10.0633 0.0773108 10.0459C0.0908468 10.0111 0.105559 9.97784 0.121745 9.94548C0.129264 9.93026 0.137686 9.91433 0.146504 9.89856C0.160979 9.87283 0.175891 9.84838 0.19166 9.82455C0.202785 9.80768 0.215105 9.79013 0.227969 9.77285L0.237994 9.7595C0.269201 9.71873 0.303056 9.68009 0.339302 9.64385L0.340692 9.64277L9.6845 0.337571C10.1378 -0.113845 10.8712 -0.112326 11.3226 0.340963C11.733 0.753044 11.769 1.39663 11.4316 1.84939L11.3192 1.97908L3.96614 9.30365L24.3248 9.30458C24.9646 9.30458 25.4832 9.82318 25.4832 10.4629Z" fill="white"/>
</svg>
