<?xml version="1.0" encoding="utf-8"?><!-- Uploaded to: SVG Repo, www.svgrepo.com, Generator: SVG Repo Mixer Tools -->
<svg width="800px" height="800px" viewBox="0 0 366.34 366.34" id="Layer_1" data-name="Layer 1" xmlns="http://www.w3.org/2000/svg"><defs><style>.cls-1{fill:#f2d4cf;}.cls-2{fill:#f2a196;}.cls-3{fill:#e88870;}.cls-4{fill:#00214e;}.cls-5{fill:none;stroke:#00214e;stroke-miterlimit:10;}.cls-6{fill:#ff2609;}.cls-7{fill:#ffffff;}</style></defs><title>Artboards_Diversity_Avatars_by_Netguru</title><path class="cls-1" d="M204.81,257.42a387,387,0,0,1-55.49-9.31c-37-9.22-72.78-25.5-101-51.14,24.9-26,38.47-41,58-71.26,14.48-22.42,32.28-61.84,59.13-72,42.06-15.93,98.88-.45,110.83,46.87,5.06,20,5.25,40.92,2.38,61.26-1.29,9.17-10.57,98.69-15.9,98.61C243.43,260.12,224.05,259.33,204.81,257.42Z"/><path class="cls-2" d="M318,280.37a184.56,184.56,0,0,1-226.48-1l48.66-22.81a47.68,47.68,0,0,0,4.35-2.34l1.12-.7c.4-.25.79-.51,1.18-.78a46.54,46.54,0,0,0,14.67-16.47c4-7.55,5.32-15.89,5.38-24.39,0-5.72-.31-11.44-.37-17.17q-.06-4.75-.1-9.51l2,1,5.2,2.69,30.29,5.15,31.12,5.3.94,32,.47,15.87,11.47,4.67,9,3.64Z"/><path class="cls-3" d="M235.84,223.23c-2.72,1.68-5.29,2.47-7.54,2.23-14.79-1.59-43.64-13.18-61.8-34.63q0-1.58-.06-3.15-.06-4.76-.1-9.51l2,1,5.2,2.69L203.81,187l31.12,5.3Z"/><circle class="cls-2" cx="141.42" cy="153.19" r="17"/><circle class="cls-3" cx="147.42" cy="151.19" r="17"/><path class="cls-2" d="M257,127.44c11.75,40.69-13.2,89.87-28.54,89.87-21,0-72-16.77-83.73-57.46S148.56,78.93,179.56,70,245.22,86.76,257,127.44Z"/><circle class="cls-4" cx="193.66" cy="140.38" r="15.16"/><circle class="cls-4" cx="245.02" cy="137.94" r="15.16"/><path class="cls-1" d="M225.66,73.05c-4.31,18.71-13.7,34.59-30.86,46.15C176.28,132,155,133.83,133.67,138.06c.54-13.11.83-27.15,7.59-38.85a79.54,79.54,0,0,1,32.31-30.36C188.38,61.2,211.29,53.7,227.92,59A112,112,0,0,1,225.66,73.05Z"/><path class="cls-5" d="M220,129.34c-.08.35,7.92,32.35,7.92,32.35h-12.5"/><path class="cls-5" d="M231.46,119.13A31.18,31.18,0,0,1,254.31,117"/><path class="cls-5" d="M176.35,122.83a36.72,36.72,0,0,1,31.23-1"/><line class="cls-5" x1="205.92" y1="141.27" x2="231.46" y2="139.09"/><path class="cls-6" d="M318,280.37a184.56,184.56,0,0,1-226.48-1l48.66-22.81a46.83,46.83,0,0,0,6.65-3.82c.64-.44,1.28-.9,1.89-1.38a46.35,46.35,0,0,0,12.78-15.09,44.69,44.69,0,0,0,4.64-14.48,28.66,28.66,0,0,0,2.22,1.94A95.14,95.14,0,0,0,188.19,235a99,99,0,0,0,10.46,3.69,93.52,93.52,0,0,0,33,3.49c1.54-.12,3.09-.27,4.63-.38l.15,5.08v.33l12.1,4.92Z"/><path class="cls-7" d="M194,173a1.86,1.86,0,0,1,2.69-.51c2.07,1.47,5.87,4.56,11.27,5.64,7.36,1.46,13.75-1.48,15.27.42.86,1.07-.19,2.37-2.2,4.05a19.73,19.73,0,0,1-14.85,3.68c-7.09-1.32-12.4-9.53-12.4-12.43A1.65,1.65,0,0,1,194,173Z"/></svg>