<svg xmlns="http://www.w3.org/2000/svg" version="1.1" xmlns:xlink="http://www.w3.org/1999/xlink" xmlns:svgjs="http://svgjs.com/svgjs" width="512" height="512" x="0" y="0" viewBox="0 0 32 32" style="enable-background:new 0 0 512 512" xml:space="preserve"><g><path d="M22.364 6.808a2 2 0 0 0 0 2.828 9 9 0 1 1-12.728 0 2 2 0 0 0-2.828-2.828 13 13 0 1 0 18.384 0 2 2 0 0 0-2.828 0z" fill="#ffffff" data-original="#000000"></path><path d="M16 15.8a2.01 2.01 0 0 0 2-2V5a2 2 0 0 0-4 0v8.8a2.01 2.01 0 0 0 2 2z" fill="#ffffff" data-original="#000000"></path></g></svg>