<svg xmlns="http://www.w3.org/2000/svg" version="1.1" xmlns:xlink="http://www.w3.org/1999/xlink" xmlns:svgjs="http://svgjs.com/svgjs" width="512" height="512" x="0" y="0" viewBox="0 0 24 24" style="enable-background:new 0 0 512 512" xml:space="preserve" class=""><g><clipPath id="a"><path d="M0 .001h24v24H0z" fill="#401818" data-original="#000000"></path></clipPath><g fill="#292929" fill-rule="evenodd" clip-path="url(#a)" clip-rule="evenodd"><path d="M16 4.001a1 1 0 0 0-1-1H5a1 1 0 0 0-1 1v14a3 3 0 0 0 3 3h8a1 1 0 1 0 0-2H7a1 1 0 0 1-1-1v-12.5a.5.5 0 0 1 .5-.5H15a1 1 0 0 0 1-1z" fill="#ffffff" data-original="#292929" class=""></path><path d="M15.293 8.294a1 1 0 0 1 1.414 0l3 3a1 1 0 0 1 0 1.414l-3 3a1 1 0 0 1-1.414-1.414l.44-.44a.5.5 0 0 0-.354-.853H9a1 1 0 1 1 0-2h6.379a.5.5 0 0 0 .353-.854l-.44-.439a1 1 0 0 1 0-1.414z" fill="#ffffff" data-original="#292929" class=""></path></g></g></svg>