<svg xmlns="http://www.w3.org/2000/svg" width="2500" height="2500" viewBox="0 0 192.756 192.756"><g fill-rule="evenodd" clip-rule="evenodd"><path fill="#fff" d="M0 0h192.756v192.756H0V0z"/><path d="M66.083 82.376c3.37 5.404 3.274 13.795-.286 19.073-4.196 6.611-11.476 9.76-19.169 8.361-6.135-1.018-12.238-6.453-13.923-12.525-2.289-7.566.159-15.481 6.453-20.377 4.896-3.91 12.906-4.863 18.628-2.034 3.242 1.398 6.548 4.323 8.297 7.502zM122.254 75.732h-11.127l11.062-1.97h.065v1.97z"/><path d="M64.938 83.998c2.829 4.736 2.448 12.047-.604 16.561-3.814 5.85-10.236 8.807-17.134 7.598-5.881-.922-11.699-6.326-13.034-12.175-1.78-6.961.858-13.764 6.644-17.96 4.451-3.37 11.667-4.038 16.658-1.335 3.019 1.429 5.944 4.322 7.47 7.311z" fill="#fff"/><path d="M7.623 104.58h21.521v1.824H5.684V77.608h1.939v26.972zM28.635 83.537h-1.621c.667-1.939 1.494-3.958 2.257-5.929h2.32l-2.956 5.929zM92.976 77.624c2.808 0 5.627 1.574 6.899 4.275 1.43 2.734 1.049 6.676-.922 9.028-1.908 2.226-4.579 2.649-7.44 2.617l9.061 12.86H98.22l-9.091-12.86H72.917v12.86H71.01v-28.78h21.966zM128.93 79.42h-23.396v11.412h19.104v1.907h-19.104v11.841h23.412c0 .572-.064 1.252 0 1.824l15.242-28.796h1.686l14.908 28.796h-2.098l-4.514-8.324h-18.629l-4.545 8.324h-27.434V77.608h25.367v1.812h.001zM164.215 104.58h21.49v1.824h-23.43V77.608h1.94v26.972z"/><path d="M93.103 79.452c2.13.095 4.229 1.462 5.086 3.465.984 2.226.73 5.213-.891 7.025-1.24 1.367-2.893 1.685-4.641 1.748h-19.74V79.42l20.186.032zM136.463 96.205l8.488-16.182 8.266 16.182h-16.754z" fill="#fff"/><path d="M187.865 110.254l-1.08.574c-1.367-1.463-3.529-1.654-5.404-1.178-.508.16-1.176.51-1.271 1.113-.031.285 0 .572.191.764 1.365.984 3.4.381 5.055.699 1.111.223 2.287.795 2.859 1.906.287.699.287 1.781-.127 2.416-1.494 2.09-4.482 2.162-6.834 1.559-1.24-.35-2.543-1.178-3.18-2.416l1.271-.572c1.367 1.971 3.879 2.447 6.104 1.811.541-.158 1.145-.539 1.367-1.111.174-.498.16-1.08-.127-1.432-1.334-1.271-3.4-.795-5.15-1.016-1.018-.127-2.098-.287-2.637-1.271-.35-.828-.256-1.939.381-2.576 1.779-1.684 4.99-1.59 7.057-.572.592.329 1.144.698 1.525 1.302zM151.689 108.459c1.029 0 2.131.748 2.639 1.764.414.986.254 2.289-.508 3.053-.74.766-1.598 1.07-2.748 1.07h-4.176v3.857h-1.406v-9.744h6.199zM164.373 118.199h-1.621l-1.145-2.318h-6.039l-1.175 2.318h-1.528l4.897-9.756h1.748l4.863 9.756zM172.098 108.459c.867 0 1.654.461 2.162 1.256.318.572.479 1.43.223 2.098-.385 1.086-1.59 1.473-2.639 1.568.922 1.59 2.004 3.229 3.02 4.818h-1.588l-3.115-4.818h-3.682v4.818h-1.438v-9.74h7.057zM177.025 118.199h-1.463v-9.756h1.463v9.756z"/><path d="M151.531 109.666c.592 0 1.24.398 1.494 1.002.223.572.158 1.367-.287 1.844-.381.381-.754.588-1.367.588h-4.475v-3.434h4.635zM161.068 114.674h-4.928l2.479-5.023c.86 1.62 1.654 3.337 2.449 5.023zM172.098 109.666c.41 0 .955.271 1.113.779.127.414.031.891-.254 1.209-.383.35-.887.445-1.367.445h-5.111v-2.434h5.619v.001z" fill="#fff"/></g></svg>