<svg width="32" height="32" viewBox="0 0 32 32" fill="none" xmlns="http://www.w3.org/2000/svg">
<path d="M17.6667 14.3333H29.3333C29.7754 14.3333 30.1993 14.5089 30.5118 14.8215C30.8244 15.134 31 15.558 31 16C31 16.442 30.8244 16.8659 30.5118 17.1785C30.1993 17.4911 29.7754 17.6667 29.3333 17.6667H17.6667V29.3333C17.6667 29.7754 17.4911 30.1993 17.1785 30.5118C16.8659 30.8244 16.442 31 16 31C15.558 31 15.134 30.8244 14.8215 30.5118C14.5089 30.1993 14.3333 29.7754 14.3333 29.3333V17.6667H2.66667C2.22464 17.6667 1.80072 17.4911 1.48816 17.1785C1.17559 16.8659 1 16.442 1 16C1 15.558 1.17559 15.134 1.48816 14.8215C1.80072 14.5089 2.22464 14.3333 2.66667 14.3333H14.3333V2.66667C14.3333 2.22464 14.5089 1.80072 14.8215 1.48816C15.134 1.17559 15.558 1 16 1C16.442 1 16.8659 1.17559 17.1785 1.48816C17.4911 1.80072 17.6667 2.22464 17.6667 2.66667V14.3333Z" fill="white" stroke="white" stroke-width="2"/>
</svg>
