<svg height="512" viewBox="0 0 64 64" width="512" xmlns="http://www.w3.org/2000/svg"><g id="Fill_1" data-name="Fill 1"><rect fill="#2583a5" height="38" rx="6" width="38" x="13" y="13"/></g><g id="Highlight_1" data-name="Highlight 1"><path d="m20.2422 48 27.7578-27.7578v24.7578a3.0033 3.0033 0 0 1 -3 3z" fill="#055473"/></g><g id="Fill_2" data-name="Fill 2"><rect fill="#d7c740" height="22" rx="2" width="22" x="21" y="21"/></g><g id="Highlight_2" data-name="Highlight 2"><path d="m43 25.24v17.76h-17.76z" fill="#af9a37"/></g><g id="Line"><path d="m23 22a1 1 0 0 0 0-2 3.0033 3.0033 0 0 0 -3 3v18a3.0033 3.0033 0 0 0 3 3h18a3.0033 3.0033 0 0 0 3-3v-18a3.0033 3.0033 0 0 0 -3-3h-12a1 1 0 0 0 0 2h12a1.0006 1.0006 0 0 1 1 1v18a1.0006 1.0006 0 0 1 -1 1h-18a1.0006 1.0006 0 0 1 -1-1v-18a1.0006 1.0006 0 0 1 1-1z"/><path d="m60 21a1 1 0 0 0 0-2h-8a7.0085 7.0085 0 0 0 -7-7v-8a1 1 0 0 0 -2 0v8h-6v-8a1 1 0 0 0 -2 0v8h-6v-8a1 1 0 0 0 -2 0v8h-6v-8a1 1 0 0 0 -2 0v8a7.0085 7.0085 0 0 0 -7 7h-8a1 1 0 0 0 0 2h9a1 1 0 0 0 1-1v-1a5.0059 5.0059 0 0 1 5-5h26a5.0059 5.0059 0 0 1 5 5v26a5.0059 5.0059 0 0 1 -5 5h-1a1 1 0 0 0 -1 1v9a1 1 0 0 0 2 0v-8a7.0085 7.0085 0 0 0 7-7h8a1 1 0 0 0 0-2h-8v-6h8a1 1 0 0 0 0-2h-8v-6h8a1 1 0 0 0 0-2h-8v-6z"/><path d="m4 43a1 1 0 0 0 0 2h8a7.0085 7.0085 0 0 0 7 7v8a1 1 0 0 0 2 0v-8h6v8a1 1 0 0 0 2 0v-8h6v8a1 1 0 0 0 2 0v-8h1a1 1 0 0 0 0-2h-19a5.0059 5.0059 0 0 1 -5-5v-19a1 1 0 0 0 -2 0v1h-8a1 1 0 0 0 0 2h8v6h-8a1 1 0 0 0 0 2h8v6z"/></g></svg>