<svg width="30" height="28" viewBox="0 0 30 28" fill="none" xmlns="http://www.w3.org/2000/svg">
<path d="M2 5.01389V21.2889C2 22.9768 2 23.8203 2.3179 24.4649C2.59752 25.032 3.04339 25.494 3.59221 25.7829C4.2155 26.1111 5.03186 26.1111 6.66216 26.1111H23.5879C25.2181 26.1111 26.0333 26.1111 26.6566 25.7829C27.2054 25.494 27.6528 25.0323 27.9324 24.4652C28.2503 23.8206 28.2503 22.9765 28.2503 21.2886V9.83578C28.2503 8.14784 28.2503 7.30387 27.9324 6.65917C27.6528 6.09206 27.2057 5.63133 26.6569 5.34239C26.033 5.01389 25.2168 5.01389 23.5833 5.01389H15.125M2 5.01389H15.125M2 5.01389C2 3.34936 3.30584 2 4.91667 2H10.2753C10.9887 2 11.3463 2 11.6819 2.08327C11.9795 2.1571 12.2636 2.27918 12.5245 2.44443C12.8188 2.63076 13.0714 2.89184 13.5755 3.41276L15.125 5.01389" stroke="white" stroke-width="3" stroke-linecap="round" stroke-linejoin="round"/>
</svg>
