<?xml version="1.0" encoding="iso-8859-1"?>
<!-- Generator: Adobe Illustrator 19.0.0, SVG Export Plug-In . SVG Version: 6.00 Build 0)  -->
<svg version="1.1" id="Capa_1" xmlns="http://www.w3.org/2000/svg" xmlns:xlink="http://www.w3.org/1999/xlink" x="0px" y="0px"
	 viewBox="0 0 512 512" style="enable-background:new 0 0 512 512;" xml:space="preserve">
<path style="fill:#F97E19;" d="M274.03,0h-36.059H12.561C5.624,0,0,5.624,0,12.561v486.878C0,506.377,5.624,512,12.561,512h486.878
	c6.937,0,12.561-5.624,12.561-12.561V274.03v-36.059V12.561C512,5.624,506.377,0,499.439,0H274.03z"/>
<g>
	<path style="fill:#FFFFFF;" d="M95.086,156.777v198.447c0,1.754,1.422,3.177,3.176,3.177h44.847c1.754,0,3.176-1.422,3.176-3.177
		V200.809c0-1.754,1.422-3.176,3.176-3.176h99.553c19.759,0,36.315,17.115,36.023,36.315c0.57,40.416,0.064,80.867,0.207,121.285
		c0.006,1.751,1.429,3.167,3.18,3.167h44.857c1.754,0,3.176-1.422,3.176-3.176l0.036-139.343c0-33.507-29.457-62.281-61.989-62.281
		H98.262C96.508,153.6,95.086,155.022,95.086,156.777z"/>
	<path style="fill:#FFFFFF;" d="M373.029,156.777v198.447c0,1.754,1.422,3.177,3.177,3.177h44.847c1.754,0,3.177-1.422,3.177-3.177
		V156.777c0-1.754-1.422-3.176-3.177-3.176h-44.847C374.451,153.6,373.029,155.022,373.029,156.777z"/>
	<path style="fill:#FFFFFF;" d="M190.172,237.234v117.99c0,1.754,1.422,3.177,3.176,3.177h44.847c1.754,0,3.176-1.422,3.176-3.177
		v-117.99c0-1.754-1.422-3.176-3.176-3.176h-44.847C191.594,234.057,190.172,235.48,190.172,237.234z"/>
</g>
<path style="fill:#EA6D11;" d="M21.12,499.439V12.561C21.12,5.624,26.744,0,33.681,0h-21.12C5.624,0,0,5.624,0,12.561v486.878
	C0,506.377,5.624,512,12.561,512h21.12C26.744,512,21.12,506.377,21.12,499.439z"/>
<g>
	<path style="fill:#D6D6D8;" d="M116.206,355.224V156.777c0-1.754,1.422-3.177,3.176-3.177h-21.12c-1.754,0-3.176,1.422-3.176,3.177
		v198.447c0,1.754,1.422,3.176,3.176,3.176h21.12C117.628,358.4,116.206,356.978,116.206,355.224z"/>
	<path style="fill:#D6D6D8;" d="M306.158,355.233c-0.143-40.418,0.57-80.869,0-121.285c0.293-19.2-16.263-36.315-36.023-36.315
		h-21.12c19.76,0,36.315,17.115,36.023,36.315c0.57,40.416,0.064,80.867,0.207,121.285c0.006,1.751,1.429,3.167,3.18,3.167h21.12
		C307.794,358.4,306.164,356.984,306.158,355.233z"/>
	<path style="fill:#D6D6D8;" d="M394.149,355.224V156.777c0-1.754,1.422-3.177,3.177-3.177h-21.12c-1.754,0-3.177,1.422-3.177,3.177
		v198.447c0,1.754,1.422,3.176,3.177,3.176h21.12C395.571,358.4,394.149,356.978,394.149,355.224z"/>
	<path style="fill:#D6D6D8;" d="M211.292,355.224v-117.99c0-1.754,1.422-3.176,3.177-3.176h-21.12c-1.755,0-3.177,1.422-3.177,3.176
		v117.99c0,1.754,1.422,3.176,3.177,3.176h21.12C212.714,358.4,211.292,356.978,211.292,355.224z"/>
</g>
<g>
</g>
<g>
</g>
<g>
</g>
<g>
</g>
<g>
</g>
<g>
</g>
<g>
</g>
<g>
</g>
<g>
</g>
<g>
</g>
<g>
</g>
<g>
</g>
<g>
</g>
<g>
</g>
<g>
</g>
</svg>
